# xmcd
# 
# Track frame offsets:
#     187
#     42060
#     63982
#     104765
#     137267
#     175787
#     200030
#     232695
#     262060
# 
# Disc length: 4110
# 
# Revision: 0
# Processed by: cddbd v1.5.2PL0 Copyright (c) Steve Scherf et al.
# Submitted via: BonkEnc v1.0.8
# 
DISCID=77100c09
DTITLE=Steve Khan - Anthony Jackson - Dave Weckl - Manolo Badrena - Public Access
DYEAR=1989
DGENRE=Fusion
TTITLE0=Sise
TTITLE1=Blue Zone 41
TTITLE2=Kamarica
TTITLE3=Silent Screen
TTITLE4=Mambosa
TTITLE5=Butane Elvin
TTITLE6=Botero People
TTITLE7=Dedicated to You
TTITLE8=Mama Chola
EXTD=corrected
EXTT0=
EXTT1=
EXTT2=
EXTT3=
EXTT4=
EXTT5=
EXTT6=
EXTT7=
EXTT8=
PLAYORDER=
